<svg width="880" height="162" fill="none" xmlns="http://www.w3.org/2000/svg"><path d="M208.267 33.441L110.489.978C106.685-.318 102.073-.33 98.586.966L0 33.44v13.773S94.356 78.2 98.756 79.689c4.4 1.487 7.822 1.34 11.733 0 3.911-1.34 97.778-32.475 97.778-32.475V33.44z" fill="#9663FC"/><path d="M184.801 68.856S134.934 84.6 122.223 89.52c-12.711 4.919-16.622 16.717-16.622 23.603v3.935h-1.956v-3.935c0-6.886-3.91-18.691-16.622-23.61-12.711-4.918-62.578-20.657-62.578-20.657v56.073s55.734 18.69 63.556 21.149c7.822 2.46 11.733 9.346 11.733 15.248h9.778c0-5.902 3.976-12.788 11.733-15.248 7.757-2.459 63.556-21.149 63.556-21.149V68.856z" fill="#7034EA"/><path d="M372.177 43.964l7.563-3.27-1.081-7.192h-40.243l-1.08 7.192 7.454 3.215.108.055c1.621.599 2.593 1.689 2.593 5.448v26.536h-35.598v-26.59c0-3.76.919-4.85 2.593-5.449l7.563-3.27-1.081-7.192h-40.243l-1.08 7.193 7.454 3.215.108.054c1.621.6 2.593 1.69 2.593 5.449v67.075c0 3.76-.918 4.85-2.593 5.449l-7.562 3.269 1.08 7.465h40.243l1.081-7.192-7.455-3.215-.108-.054c-1.62-.6-2.593-1.69-2.593-5.449V85.647h35.598v31.113c0 3.76-.918 4.85-2.593 5.449l-7.562 3.269 1.08 7.193h40.243l1.081-7.193-7.455-3.214-.108-.055c-1.62-.599-2.593-1.689-2.593-5.449V49.358c0-3.705.973-4.795 2.593-5.394zM440.617 104.009c-4.321 8.445-10.101 12.587-17.664 12.587-12.856 0-16.421-10.953-17.285-18.908h41.81v-2.125c0-9.699-2.863-17.055-8.535-21.904-4.592-3.924-10.912-5.994-18.258-5.994-8.913 0-17.664 3.27-24.038 8.881-7.185 6.376-11.02 15.257-11.02 25.61 0 9.536 3.079 17.6 8.967 23.376 6.428 6.32 14.801 8.554 20.689 8.554h.54c15.611 0 26.415-9.644 31.222-27.898l.595-2.179-6.321-1.417-.702 1.417zm-34.679-14.603c1.026-9.1 4.969-13.731 11.884-13.731 3.295 0 7.724 1.47 9.021 13.73h-20.905zM499.929 69.139l-1.243 6.157 5.996 2.997.108.054c1.837.818 1.837 1.417 1.837 1.744 0 .436-.162 1.035-.648 1.907l-12.478 26.863-11.182-26.754-.054-.109c-.432-.872-.648-1.471-.648-1.907 0-.327 0-.98 1.674-1.798l5.996-2.997-1.242-6.157h-38.947l-1.243 6.266 6.645 2.997c2.376 1.09 4.159 2.888 5.51 5.558l21.715 48.876-4.538 10.08-8.967-5.612h-3.727l-10.317 15.257 5.617 4.086c4.322 3.215 7.077 4.686 11.182 4.686 5.51 0 9.291-2.561 11.83-8.064l32.897-69.2c1.567-2.888 2.701-4.469 4.97-5.613l6.59-2.942-1.243-6.266h-26.09v-.11zM580.201 121.88c-1.62-.599-2.593-1.689-2.593-5.449l-.091-74.429h8.967l15.449 18.472 5.996.98 7.239-23.212-1.081-4.795H518.53l-1.081 4.795 7.239 23.212 5.996-.98 15.503-18.472h8.967l.091 74.484c0 3.759-.918 4.849-2.593 5.449l-7.671 3.323 1.621 7.138h40.081l1.081-7.192-7.455-3.215-.108-.109z" fill="#000"/><path d="M673.921 67.394h-4.322l-24.956 5.176-1.458 4.469 9.507 6.266v31.875l-3.727 3.052c-4.052 3.215-6.915 4.413-10.588 4.413-4.7 0-8.967-1.253-8.967-16.455V67.667h-4.321l-24.957 5.176-1.458 4.468 9.507 6.266V113.164c.81 14.276 8.157 21.196 22.525 21.196 7.509 0 14.531-2.561 20.905-7.628l1.081-.872v7.956h4.321l24.957-5.177 1.458-4.468-9.507-6.266V67.394zM731.883 114.582c-2.052 3.923-5.24 5.994-9.183 5.994-2.539 0-8.373-.872-8.373-8.718v-33.62h19.555v-9.1h-19.555V51.702h-4.807l-25.821 18.472v3.868l9.075 7.138v34.71c0 11.006 8.805 18.471 21.986 18.471 11.235 0 19.176-5.83 23.551-17.382l.865-2.288-6.537-1.471-.756 1.362zM781.416 67.665c-25.118 0-38.73 17.763-38.73 34.491 0 8.664 3.457 17.055 9.453 22.994 5.888 5.83 13.558 8.882 22.201 8.882h.594c25.119 0 38.731-17.763 38.731-34.491 0-8.337-3.079-16.238-8.697-22.123-5.996-6.266-14.314-9.753-23.552-9.753zm10.372 42.228c0 5.94-1.351 15.857-10.372 15.857-9.129 0-16.907-15.421-16.907-33.62 0-5.94 1.35-15.856 10.371-15.856 9.183 0 16.908 15.366 16.908 33.619zM875.841 72.351c-2.484-1.907-6.536-4.087-11.722-4.087-6.536 0-11.451 3.052-16.043 6.485v-6.485h-4.591l-25.173 12.86v4.086l8.535 6.594v27.571c0 2.833-.648 3.541-2.755 4.631l-6.59 2.943 1.242 6.266h40.892l1.296-6.539-10.371-2.779c-2.431-.708-2.431-.926-2.431-4.522V84.829c1.945-1.526 3.295-2.343 4.97-3.16l11.344 13.622 4.861 1.09 10.696-21.197-4.16-2.833z" fill="#000"/></svg>